solid health_device_V8
facet normal 6.836282381934169e-15 1.0 3.41540914646818e-30
  outer loop
    vertex 290.3987355245439 17.138564820373418 0.4000000000000225
    vertex 296.998735524544 17.138564820373375 2.255973186038318e-14
    vertex 290.3987355245439 17.138564820373418 2.255973186038318e-14
  endloop
endfacet
facet normal 6.836282381934169e-15 1.0 3.41540914646818e-30
  outer loop
    vertex 296.998735524544 17.138564820373375 2.255973186038318e-14
    vertex 290.3987355245439 17.138564820373418 0.4000000000000225
    vertex 296.998735524544 17.138564820373375 0.4000000000000225
  endloop
endfacet
facet normal 0.0 -1.0 0.0
  outer loop
    vertex 296.998735524544 12.338564820373337 0.4000000000000225
    vertex 290.39873552454395 12.338564820373337 2.255973186038318e-14
    vertex 296.998735524544 12.338564820373337 2.255973186038318e-14
  endloop
endfacet
facet normal 0.0 -1.0 0.0
  outer loop
    vertex 290.39873552454395 12.338564820373337 2.255973186038318e-14
    vertex 296.998735524544 12.338564820373337 0.4000000000000225
    vertex 290.39873552454395 12.338564820373337 0.4000000000000225
  endloop
endfacet
facet normal 0.13052619222008416 0.9914448613738062 6.521093276372388e-17
  outer loop
    vertex 284.5823241291909 28.672377919147905 0.39999999999999997
    vertex 287.9987355245438 28.22259882616354 0.0
    vertex 284.5823241291909 28.672377919147905 0.0
  endloop
endfacet
facet normal 0.13052619222008416 0.9914448613738062 6.521093276372388e-17
  outer loop
    vertex 287.9987355245438 28.22259882616354 0.0
    vertex 284.5823241291909 28.672377919147905 0.39999999999999997
    vertex 287.9987355245438 28.22259882616354 0.39999999999999997
  endloop
endfacet
facet normal -0.6087614290087654 0.793353340291201 -3.041374297451598e-16
  outer loop
    vertex 295.687770892787 30.82670972512549 0.4000000000000225
    vertex 297.3325450362063 32.08878931450122 2.255973186038318e-14
    vertex 295.687770892787 30.82670972512549 2.255973186038318e-14
  endloop
endfacet
facet normal -0.6087614290087654 0.793353340291201 -3.041374297451598e-16
  outer loop
    vertex 297.3325450362063 32.08878931450122 2.255973186038318e-14
    vertex 295.687770892787 30.82670972512549 0.4000000000000225
    vertex 297.3325450362063 32.08878931450122 0.4000000000000225
  endloop
endfacet
facet normal -0.7933533402912735 -0.6087614290086709 -3.9635961527459195e-16
  outer loop
    vertex 273.6348470334722 30.82670972512549 0.39999999999999997
    vertex 275.27081346318613 28.69467676480563 0.0
    vertex 275.27081346318613 28.69467676480563 0.39999999999999997
  endloop
endfacet
facet normal -0.7933533402912735 -0.6087614290086709 -3.9635961527459195e-16
  outer loop
    vertex 275.27081346318613 28.69467676480563 0.0
    vertex 273.6348470334722 30.82670972512549 0.39999999999999997
    vertex 273.6348470334722 30.82670972512549 0.0
  endloop
endfacet
facet normal 0.382683432365102 -0.9238795325112817 1.9118878098944403e-16
  outer loop
    vertex 296.9987355245441 25.83414155804376 0.4000000000000225
    vertex 292.6574783363894 24.035933952960335 2.255973186038318e-14
    vertex 296.9987355245441 25.83414155804376 2.255973186038318e-14
  endloop
endfacet
facet normal 0.382683432365102 -0.9238795325112817 1.9118878098944403e-16
  outer loop
    vertex 292.6574783363894 24.035933952960335 2.255973186038318e-14
    vertex 296.9987355245441 25.83414155804376 0.4000000000000225
    vertex 292.6574783363894 24.035933952960335 0.4000000000000225
  endloop
endfacet
facet normal 0.38268343236506164 -0.9238795325112985 1.9118878098942386e-16
  outer loop
    vertex 284.5823241291909 54.17281973317935 0.39999999999999997
    vertex 281.39873552454395 52.85413415611825 0.0
    vertex 284.5823241291909 54.17281973317935 0.0
  endloop
endfacet
facet normal 0.38268343236506164 -0.9238795325112985 1.9118878098942386e-16
  outer loop
    vertex 281.39873552454395 52.85413415611825 0.0
    vertex 284.5823241291909 54.17281973317935 0.39999999999999997
    vertex 281.39873552454395 52.85413415611825 0.39999999999999997
  endloop
endfacet
facet normal 1.0 0.0 4.996003610813204e-16
  outer loop
    vertex 296.998735524544 17.138564820373375 2.255973186038318e-14
    vertex 296.998735524544 12.338564820373337 0.4000000000000225
    vertex 296.998735524544 12.338564820373337 2.255973186038318e-14
  endloop
endfacet
facet normal 1.0 0.0 4.996003610813204e-16
  outer loop
    vertex 296.998735524544 12.338564820373337 0.4000000000000225
    vertex 296.998735524544 17.138564820373375 2.255973186038318e-14
    vertex 296.998735524544 17.138564820373375 0.4000000000000225
  endloop
endfacet
facet normal -0.13052619222006215 0.9914448613738092 -6.521093276371288e-17
  outer loop
    vertex 287.9987355245438 28.22259882616354 0.39999999999999997
    vertex 291.4151469198973 28.672377919147905 2.255973186038318e-14
    vertex 287.9987355245438 28.22259882616354 0.0
  endloop
endfacet
facet normal -0.13052619222006215 0.9914448613738092 -6.521093276371288e-17
  outer loop
    vertex 291.4151469198973 28.672377919147905 2.255973186038318e-14
    vertex 287.9987355245438 28.22259882616354 0.39999999999999997
    vertex 291.4151469198973 28.672377919147905 0.4000000000000225
  endloop
endfacet
facet normal 0.6087614290087041 0.7933533402912479 3.0413742974512917e-16
  outer loop
    vertex 280.30970015630106 30.82670972512549 0.39999999999999997
    vertex 281.3987355245442 29.99106349620897 0.0
    vertex 280.30970015630106 30.82670972512549 0.0
  endloop
endfacet
facet normal 0.6087614290087041 0.7933533402912479 3.0413742974512917e-16
  outer loop
    vertex 281.3987355245442 29.99106349620897 0.0
    vertex 280.30970015630106 30.82670972512549 0.39999999999999997
    vertex 281.3987355245442 29.99106349620897 0.39999999999999997
  endloop
endfacet
facet normal -0.6087614290086838 -0.7933533402912635 -3.0413742974511906e-16
  outer loop
    vertex 278.99873552454414 25.83414155804376 0.39999999999999997
    vertex 275.27081346318613 28.69467676480563 0.0
    vertex 278.99873552454414 25.83414155804376 0.0
  endloop
endfacet
facet normal -0.6087614290086838 -0.7933533402912635 -3.0413742974511906e-16
  outer loop
    vertex 275.27081346318613 28.69467676480563 0.0
    vertex 278.99873552454414 25.83414155804376 0.39999999999999997
    vertex 275.27081346318613 28.69467676480563 0.39999999999999997
  endloop
endfacet
facet normal -0.3826834323650932 -0.9238795325112854 -1.9118878098943964e-16
  outer loop
    vertex 294.59873552454417 52.85413415611816 0.4000000000000225
    vertex 291.4151469198973 54.17281973317935 2.255973186038318e-14
    vertex 294.59873552454417 52.85413415611816 2.255973186038318e-14
  endloop
endfacet
facet normal -0.3826834323650932 -0.9238795325112854 -1.9118878098943964e-16
  outer loop
    vertex 291.4151469198973 54.17281973317935 2.255973186038318e-14
    vertex 294.59873552454417 52.85413415611816 0.4000000000000225
    vertex 291.4151469198973 54.17281973317935 0.4000000000000225
  endloop
endfacet
facet normal -0.13052619222004502 -0.9914448613738114 -6.521093276370434e-17
  outer loop
    vertex 285.59873552454377 23.73856482037345 0.39999999999999997
    vertex 283.33999271269874 24.035933952960423 0.0
    vertex 285.59873552454377 23.73856482037345 0.0
  endloop
endfacet
facet normal -0.13052619222004502 -0.9914448613738114 -6.521093276370434e-17
  outer loop
    vertex 283.33999271269874 24.035933952960423 0.0
    vertex 285.59873552454377 23.73856482037345 0.39999999999999997
    vertex 283.33999271269874 24.035933952960423 0.39999999999999997
  endloop
endfacet
facet normal 0.0 -1.0 0.0
  outer loop
    vertex 285.5987355245439 12.338564820373337 0.39999999999999997
    vertex 278.99873552454414 12.338564820373337 0.0
    vertex 285.5987355245439 12.338564820373337 0.0
  endloop
endfacet
facet normal 0.0 -1.0 0.0
  outer loop
    vertex 278.99873552454414 12.338564820373337 0.0
    vertex 285.5987355245439 12.338564820373337 0.39999999999999997
    vertex 278.99873552454414 12.338564820373337 0.39999999999999997
  endloop
endfacet
facet normal -0.9914448613738144 0.1305261922200225 -4.953262107345774e-16
  outer loop
    vertex 301.19873552454413 41.422598826163565 0.4000000000000225
    vertex 300.7489564315599 38.006187430810385 2.255973186038318e-14
    vertex 300.7489564315599 38.006187430810385 0.4000000000000225
  endloop
endfacet
facet normal -0.9914448613738144 0.1305261922200225 -4.953262107345774e-16
  outer loop
    vertex 300.7489564315599 38.006187430810385 2.255973186038318e-14
    vertex 301.19873552454413 41.422598826163565 0.4000000000000225
    vertex 301.19873552454413 41.422598826163565 2.255973186038318e-14
  endloop
endfacet
facet normal -0.6087614290087687 -0.7933533402911983 -3.0413742974516146e-16
  outer loop
    vertex 297.3325450362063 50.756408337825995 0.4000000000000225
    vertex 294.59873552454417 52.85413415611816 2.255973186038318e-14
    vertex 297.3325450362063 50.756408337825995 2.255973186038318e-14
  endloop
endfacet
facet normal -0.6087614290087687 -0.7933533402911983 -3.0413742974516146e-16
  outer loop
    vertex 294.59873552454417 52.85413415611816 2.255973186038318e-14
    vertex 297.3325450362063 50.756408337825995 0.4000000000000225
    vertex 294.59873552454417 52.85413415611816 0.4000000000000225
  endloop
endfacet
facet normal 0.608761429008753 -0.7933533402912105 3.0413742974515357e-16
  outer loop
    vertex 300.7266575859016 28.694676764805767 0.4000000000000225
    vertex 296.9987355245441 25.83414155804376 2.255973186038318e-14
    vertex 300.7266575859016 28.694676764805767 2.255973186038318e-14
  endloop
endfacet
facet normal 0.608761429008753 -0.7933533402912105 3.0413742974515357e-16
  outer loop
    vertex 296.9987355245441 25.83414155804376 2.255973186038318e-14
    vertex 300.7266575859016 28.694676764805767 0.4000000000000225
    vertex 296.9987355245441 25.83414155804376 0.4000000000000225
  endloop
endfacet
facet normal 0.9238795325113122 0.38268343236502894 4.615705480382931e-16
  outer loop
    vertex 275.24851461752843 38.006187430810385 0.0
    vertex 276.5672001945893 34.82259882616362 0.39999999999999997
    vertex 276.5672001945893 34.82259882616362 0.0
  endloop
endfacet
facet normal 0.9238795325113122 0.38268343236502894 4.615705480382931e-16
  outer loop
    vertex 276.5672001945893 34.82259882616362 0.39999999999999997
    vertex 275.24851461752843 38.006187430810385 0.0
    vertex 275.24851461752843 38.006187430810385 0.39999999999999997
  endloop
endfacet
facet normal 0.6087614290087037 0.7933533402912482 3.04137429745129e-16
  outer loop
    vertex 296.998735524544 57.011056094283546 0.4000000000000225
    vertex 300.7266575859019 54.15052088752163 2.255973186038318e-14
    vertex 296.998735524544 57.011056094283546 2.255973186038318e-14
  endloop
endfacet
facet normal 0.6087614290087037 0.7933533402912482 3.04137429745129e-16
  outer loop
    vertex 300.7266575859019 54.15052088752163 2.255973186038318e-14
    vertex 296.998735524544 57.011056094283546 0.4000000000000225
    vertex 300.7266575859019 54.15052088752163 0.4000000000000225
  endloop
endfacet
facet normal 0.7933533402912286 -0.6087614290087292 3.963596152745695e-16
  outer loop
    vertex 303.58719279266376 32.42259882616362 2.255973186038318e-14
    vertex 302.3626240156157 30.82670972512549 0.4000000000000225
    vertex 302.3626240156157 30.82670972512549 2.255973186038318e-14
  endloop
endfacet
facet normal 0.7933533402912286 -0.6087614290087292 3.963596152745695e-16
  outer loop
    vertex 302.3626240156157 30.82670972512549 0.4000000000000225
    vertex 303.58719279266376 32.42259882616362 2.255973186038318e-14
    vertex 303.58719279266376 32.42259882616362 0.4000000000000225
  endloop
endfacet
facet normal 0.13052619222002196 -0.9914448613738144 6.521093276369281e-17
  outer loop
    vertex 292.6574783363894 24.035933952960335 0.4000000000000225
    vertex 290.3987355245439 23.738564820373362 2.255973186038318e-14
    vertex 292.6574783363894 24.035933952960335 2.255973186038318e-14
  endloop
endfacet
facet normal 0.13052619222002196 -0.9914448613738144 6.521093276369281e-17
  outer loop
    vertex 290.3987355245439 23.738564820373362 2.255973186038318e-14
    vertex 292.6574783363894 24.035933952960335 0.4000000000000225
    vertex 290.3987355245439 23.738564820373362 0.4000000000000225
  endloop
endfacet
facet normal -1.0 -1.8799776550318997e-14 -4.996003610813204e-16
  outer loop
    vertex 278.9987355245441 17.138564820373418 0.39999999999999997
    vertex 278.99873552454414 12.338564820373337 0.0
    vertex 278.99873552454414 12.338564820373337 0.39999999999999997
  endloop
endfacet
facet normal -1.0 -1.8799776550318997e-14 -4.996003610813204e-16
  outer loop
    vertex 278.99873552454414 12.338564820373337 0.0
    vertex 278.9987355245441 17.138564820373418 0.39999999999999997
    vertex 278.9987355245441 17.138564820373418 0.0
  endloop
endfacet
facet normal 0.793353340291245 -0.608761429008708 3.963596152745777e-16
  outer loop
    vertex 278.6649260128815 50.75640833782609 0.0
    vertex 276.5672001945894 48.02259882616369 0.39999999999999997
    vertex 276.5672001945894 48.02259882616369 0.0
  endloop
endfacet
facet normal 0.793353340291245 -0.608761429008708 3.963596152745777e-16
  outer loop
    vertex 276.5672001945894 48.02259882616369 0.39999999999999997
    vertex 278.6649260128815 50.75640833782609 0.0
    vertex 278.6649260128815 50.75640833782609 0.39999999999999997
  endloop
endfacet
facet normal -0.13052619222001233 -0.9914448613738156 -6.521093276368801e-17
  outer loop
    vertex 291.4151469198973 54.17281973317935 2.255973186038318e-14
    vertex 287.99873552454386 54.62259882616354 0.39999999999999997
    vertex 287.99873552454386 54.62259882616354 0.0
  endloop
endfacet
facet normal -0.13052619222001233 -0.9914448613738156 -6.521093276368801e-17
  outer loop
    vertex 287.99873552454386 54.62259882616354 0.39999999999999997
    vertex 291.4151469198973 54.17281973317935 2.255973186038318e-14
    vertex 291.4151469198973 54.17281973317935 0.4000000000000225
  endloop
endfacet
facet normal -1.8799776550318997e-14 -1.0 -9.392375152787512e-30
  outer loop
    vertex 290.3987355245439 5.73856482037335 2.255973186038318e-14
    vertex 285.59873552454377 5.73856482037344 0.39999999999999997
    vertex 285.59873552454377 5.73856482037344 0.0
  endloop
endfacet
facet normal -1.8799776550318997e-14 -1.0 -9.392375152787512e-30
  outer loop
    vertex 285.59873552454377 5.73856482037344 0.39999999999999997
    vertex 290.3987355245439 5.73856482037335 2.255973186038318e-14
    vertex 290.3987355245439 5.73856482037335 0.4000000000000225
  endloop
endfacet
facet normal 0.9238795325112983 -0.38268343236506247 4.615705480382862e-16
  outer loop
    vertex 276.5672001945894 48.02259882616369 0.0
    vertex 275.24851461752843 44.83901022151692 0.39999999999999997
    vertex 275.24851461752843 44.83901022151692 0.0
  endloop
endfacet
facet normal 0.9238795325112983 -0.38268343236506247 4.615705480382862e-16
  outer loop
    vertex 275.24851461752843 44.83901022151692 0.39999999999999997
    vertex 276.5672001945894 48.02259882616369 0.0
    vertex 276.5672001945894 48.02259882616369 0.39999999999999997
  endloop
endfacet
facet normal -0.7933533402912069 -0.6087614290087574 -3.963596152745586e-16
  outer loop
    vertex 297.3325450362063 50.756408337825995 0.4000000000000225
    vertex 299.43027085449864 48.022598826163595 2.255973186038318e-14
    vertex 299.43027085449864 48.022598826163595 0.4000000000000225
  endloop
endfacet
facet normal -0.7933533402912069 -0.6087614290087574 -3.963596152745586e-16
  outer loop
    vertex 299.43027085449864 48.022598826163595 2.255973186038318e-14
    vertex 297.3325450362063 50.756408337825995 0.4000000000000225
    vertex 297.3325450362063 50.756408337825995 2.255973186038318e-14
  endloop
endfacet
facet normal 0.9914448613738 -0.13052619222013156 4.953262107345701e-16
  outer loop
    vertex 275.24851461752843 44.83901022151692 0.0
    vertex 274.7987355245438 41.422598826163565 0.39999999999999997
    vertex 274.7987355245438 41.422598826163565 0.0
  endloop
endfacet
facet normal 0.9914448613738 -0.13052619222013156 4.953262107345701e-16
  outer loop
    vertex 274.7987355245438 41.422598826163565 0.39999999999999997
    vertex 275.24851461752843 44.83901022151692 0.0
    vertex 275.24851461752843 44.83901022151692 0.39999999999999997
  endloop
endfacet
facet normal -0.7933533402912037 0.6087614290087618 -3.963596152745571e-16
  outer loop
    vertex 299.4302708544986 34.82259882616353 0.4000000000000225
    vertex 297.3325450362063 32.08878931450122 2.255973186038318e-14
    vertex 297.3325450362063 32.08878931450122 0.4000000000000225
  endloop
endfacet
facet normal -0.7933533402912037 0.6087614290087618 -3.963596152745571e-16
  outer loop
    vertex 297.3325450362063 32.08878931450122 2.255973186038318e-14
    vertex 299.4302708544986 34.82259882616353 0.4000000000000225
    vertex 299.4302708544986 34.82259882616353 2.255973186038318e-14
  endloop
endfacet
facet normal -0.9238795325112695 0.38268343236513136 -4.615705480382718e-16
  outer loop
    vertex 300.7489564315599 38.006187430810385 0.4000000000000225
    vertex 299.4302708544986 34.82259882616353 2.255973186038318e-14
    vertex 299.4302708544986 34.82259882616353 0.4000000000000225
  endloop
endfacet
facet normal -0.9238795325112695 0.38268343236513136 -4.615705480382718e-16
  outer loop
    vertex 299.4302708544986 34.82259882616353 2.255973186038318e-14
    vertex 300.7489564315599 38.006187430810385 0.4000000000000225
    vertex 300.7489564315599 38.006187430810385 2.255973186038318e-14
  endloop
endfacet
facet normal -0.6087614290087738 0.7933533402911944 -3.04137429745164e-16
  outer loop
    vertex 294.59873552454417 29.99106349620906 0.4000000000000225
    vertex 295.687770892787 30.82670972512549 2.255973186038318e-14
    vertex 294.59873552454417 29.99106349620906 2.255973186038318e-14
  endloop
endfacet
facet normal -0.6087614290087738 0.7933533402911944 -3.04137429745164e-16
  outer loop
    vertex 295.687770892787 30.82670972512549 2.255973186038318e-14
    vertex 294.59873552454417 29.99106349620906 0.4000000000000225
    vertex 295.687770892787 30.82670972512549 0.4000000000000225
  endloop
endfacet
facet normal 0.7933533402912387 0.6087614290087162 3.9635961527457454e-16
  outer loop
    vertex 276.5672001945893 34.82259882616362 0.0
    vertex 278.66492601288144 32.08878931450122 0.39999999999999997
    vertex 278.66492601288144 32.08878931450122 0.0
  endloop
endfacet
facet normal 0.7933533402912387 0.6087614290087162 3.9635961527457454e-16
  outer loop
    vertex 278.66492601288144 32.08878931450122 0.39999999999999997
    vertex 276.5672001945893 34.82259882616362 0.0
    vertex 276.5672001945893 34.82259882616362 0.39999999999999997
  endloop
endfacet
facet normal 0.6087614290087213 -0.7933533402912348 3.041374297451378e-16
  outer loop
    vertex 281.39873552454395 52.85413415611825 0.39999999999999997
    vertex 278.6649260128815 50.75640833782609 0.0
    vertex 281.39873552454395 52.85413415611825 0.0
  endloop
endfacet
facet normal 0.6087614290087213 -0.7933533402912348 3.041374297451378e-16
  outer loop
    vertex 278.6649260128815 50.75640833782609 0.0
    vertex 281.39873552454395 52.85413415611825 0.39999999999999997
    vertex 278.6649260128815 50.75640833782609 0.39999999999999997
  endloop
endfacet
facet normal 0.3826834323650783 0.9238795325112917 1.9118878098943217e-16
  outer loop
    vertex 281.3987355245442 29.99106349620897 0.39999999999999997
    vertex 284.5823241291909 28.672377919147905 0.0
    vertex 281.3987355245442 29.99106349620897 0.0
  endloop
endfacet
facet normal 0.3826834323650783 0.9238795325112917 1.9118878098943217e-16
  outer loop
    vertex 284.5823241291909 28.672377919147905 0.0
    vertex 281.3987355245442 29.99106349620897 0.39999999999999997
    vertex 284.5823241291909 28.672377919147905 0.39999999999999997
  endloop
endfacet
facet normal -0.9914448613738108 -0.13052619222004824 -4.953262107345756e-16
  outer loop
    vertex 300.74895643155986 44.839010221516745 0.4000000000000225
    vertex 301.19873552454413 41.422598826163565 2.255973186038318e-14
    vertex 301.19873552454413 41.422598826163565 0.4000000000000225
  endloop
endfacet
facet normal -0.9914448613738108 -0.13052619222004824 -4.953262107345756e-16
  outer loop
    vertex 301.19873552454413 41.422598826163565 2.255973186038318e-14
    vertex 300.74895643155986 44.839010221516745 0.4000000000000225
    vertex 300.74895643155986 44.839010221516745 2.255973186038318e-14
  endloop
endfacet
facet normal -0.382683432365082 0.92387953251129 -1.9118878098943405e-16
  outer loop
    vertex 291.4151469198973 28.672377919147905 0.4000000000000225
    vertex 294.59873552454417 29.99106349620906 2.255973186038318e-14
    vertex 291.4151469198973 28.672377919147905 2.255973186038318e-14
  endloop
endfacet
facet normal -0.382683432365082 0.92387953251129 -1.9118878098943405e-16
  outer loop
    vertex 294.59873552454417 29.99106349620906 2.255973186038318e-14
    vertex 291.4151469198973 28.672377919147905 0.4000000000000225
    vertex 294.59873552454417 29.99106349620906 0.4000000000000225
  endloop
endfacet
facet normal 0.6087614290086866 0.7933533402912614 3.0413742974512044e-16
  outer loop
    vertex 278.66492601288144 32.08878931450122 0.39999999999999997
    vertex 280.30970015630106 30.82670972512549 0.0
    vertex 278.66492601288144 32.08878931450122 0.0
  endloop
endfacet
facet normal 0.6087614290086866 0.7933533402912614 3.0413742974512044e-16
  outer loop
    vertex 280.30970015630106 30.82670972512549 0.0
    vertex 278.66492601288144 32.08878931450122 0.39999999999999997
    vertex 280.30970015630106 30.82670972512549 0.39999999999999997
  endloop
endfacet
facet normal -0.9238795325112834 -0.38268343236509783 -4.615705480382788e-16
  outer loop
    vertex 299.43027085449864 48.022598826163595 0.4000000000000225
    vertex 300.74895643155986 44.839010221516745 2.255973186038318e-14
    vertex 300.74895643155986 44.839010221516745 0.4000000000000225
  endloop
endfacet
facet normal -0.9238795325112834 -0.38268343236509783 -4.615705480382788e-16
  outer loop
    vertex 300.74895643155986 44.839010221516745 2.255973186038318e-14
    vertex 299.43027085449864 48.022598826163595 0.4000000000000225
    vertex 299.43027085449864 48.022598826163595 2.255973186038318e-14
  endloop
endfacet
facet normal 0.9914448613737973 0.1305261922201512 4.953262107345688e-16
  outer loop
    vertex 274.7987355245438 41.422598826163565 0.0
    vertex 275.24851461752843 38.006187430810385 0.39999999999999997
    vertex 275.24851461752843 38.006187430810385 0.0
  endloop
endfacet
facet normal 0.9914448613737973 0.1305261922201512 4.953262107345688e-16
  outer loop
    vertex 275.24851461752843 38.006187430810385 0.39999999999999997
    vertex 274.7987355245438 41.422598826163565 0.0
    vertex 274.7987355245438 41.422598826163565 0.39999999999999997
  endloop
endfacet
facet normal 4.996003610813204e-16 0.0 -1.0
  outer loop
    vertex 274.7987355245438 41.422598826163565 0.0
    vertex 275.27081346318613 28.69467676480563 0.0
    vertex 273.6348470334722 30.82670972512549 0.0
  endloop
endfacet
facet normal 4.996003610813204e-16 0.0 -1.0
  outer loop
    vertex 275.27081346318613 28.69467676480563 0.0
    vertex 274.7987355245438 41.422598826163565 0.0
    vertex 275.24851461752843 38.006187430810385 0.0
  endloop
endfacet
facet normal 4.996003610813204e-16 0.0 -1.0
  outer loop
    vertex 275.27081346318613 28.69467676480563 0.0
    vertex 275.24851461752843 38.006187430810385 0.0
    vertex 276.5672001945893 34.82259882616362 0.0
  endloop
endfacet
facet normal 4.996003610813204e-16 0.0 -1.0
  outer loop
    vertex 275.27081346318613 28.69467676480563 0.0
    vertex 276.5672001945893 34.82259882616362 0.0
    vertex 278.99873552454414 25.83414155804376 0.0
  endloop
endfacet
facet normal 4.996003610813204e-16 0.0 -1.0
  outer loop
    vertex 278.99873552454414 25.83414155804376 0.0
    vertex 276.5672001945893 34.82259882616362 0.0
    vertex 278.66492601288144 32.08878931450122 0.0
  endloop
endfacet
facet normal 4.996003610813204e-16 0.0 -1.0
  outer loop
    vertex 278.99873552454414 25.83414155804376 0.0
    vertex 278.66492601288144 32.08878931450122 0.0
    vertex 280.30970015630106 30.82670972512549 0.0
  endloop
endfacet
facet normal 4.996003610813204e-16 0.0 -1.0
  outer loop
    vertex 278.99873552454414 25.83414155804376 0.0
    vertex 280.30970015630106 30.82670972512549 0.0
    vertex 283.33999271269874 24.035933952960423 0.0
  endloop
endfacet
facet normal 4.996003610813204e-16 0.0 -1.0
  outer loop
    vertex 283.33999271269874 24.035933952960423 0.0
    vertex 280.30970015630106 30.82670972512549 0.0
    vertex 281.3987355245442 29.99106349620897 0.0
  endloop
endfacet
facet normal 4.996003610813204e-16 0.0 -1.0
  outer loop
    vertex 283.33999271269874 24.035933952960423 0.0
    vertex 281.3987355245442 29.99106349620897 0.0
    vertex 284.5823241291909 28.672377919147905 0.0
  endloop
endfacet
facet normal 4.996003610813204e-16 0.0 -1.0
  outer loop
    vertex 283.33999271269874 24.035933952960423 0.0
    vertex 284.5823241291909 28.672377919147905 0.0
    vertex 285.59873552454377 23.73856482037345 0.0
  endloop
endfacet
facet normal 4.996003610813204e-16 0.0 -1.0
  outer loop
    vertex 285.59873552454377 23.73856482037345 0.0
    vertex 284.5823241291909 28.672377919147905 0.0
    vertex 287.9987355245438 28.22259882616354 0.0
  endloop
endfacet
facet normal 4.996003610813204e-16 0.0 -1.0
  outer loop
    vertex 285.59873552454377 23.73856482037345 0.0
    vertex 287.9987355245438 28.22259882616354 0.0
    vertex 285.5987355245439 17.138564820373418 0.0
  endloop
endfacet
facet normal 4.996003610813204e-16 0.0 -1.0
  outer loop
    vertex 285.5987355245439 17.138564820373418 0.0
    vertex 287.9987355245438 28.22259882616354 0.0
    vertex 285.5987355245439 12.338564820373337 0.0
  endloop
endfacet
facet normal 4.996003610813204e-16 0.0 -1.0
  outer loop
    vertex 270.61207065134096 46.08134163800891 0.0
    vertex 270.6120706513408 36.763856014318044 0.0
    vertex 269.99873552454386 41.422598826163565 0.0
  endloop
endfacet
facet normal 4.996003610813204e-16 0.0 -1.0
  outer loop
    vertex 270.6120706513408 36.763856014318044 0.0
    vertex 270.61207065134096 46.08134163800891 0.0
    vertex 272.4102782564244 32.42259882616362 0.0
  endloop
endfacet
facet normal 4.996003610813204e-16 0.0 -1.0
  outer loop
    vertex 272.4102782564244 32.42259882616362 0.0
    vertex 270.61207065134096 46.08134163800891 0.0
    vertex 272.41027825642414 50.42259882616359 0.0
  endloop
endfacet
facet normal 4.996003610813204e-16 0.0 -1.0
  outer loop
    vertex 272.4102782564244 32.42259882616362 0.0
    vertex 272.41027825642414 50.42259882616359 0.0
    vertex 275.27081346318613 54.15052088752145 0.0
  endloop
endfacet
facet normal 4.996003610813204e-16 0.0 -1.0
  outer loop
    vertex 272.4102782564244 32.42259882616362 0.0
    vertex 275.27081346318613 54.15052088752145 0.0
    vertex 273.6348470334722 30.82670972512549 0.0
  endloop
endfacet
facet normal 4.996003610813204e-16 0.0 -1.0
  outer loop
    vertex 273.6348470334722 30.82670972512549 0.0
    vertex 275.27081346318613 54.15052088752145 0.0
    vertex 274.7987355245438 41.422598826163565 0.0
  endloop
endfacet
facet normal 4.996003610813204e-16 0.0 -1.0
  outer loop
    vertex 274.7987355245438 41.422598826163565 0.0
    vertex 275.27081346318613 54.15052088752145 0.0
    vertex 275.24851461752843 44.83901022151692 0.0
  endloop
endfacet
facet normal 4.996003610813204e-16 0.0 -1.0
  outer loop
    vertex 275.24851461752843 44.83901022151692 0.0
    vertex 275.27081346318613 54.15052088752145 0.0
    vertex 276.5672001945894 48.02259882616369 0.0
  endloop
endfacet
facet normal 4.996003610813204e-16 0.0 -1.0
  outer loop
    vertex 276.5672001945894 48.02259882616369 0.0
    vertex 275.27081346318613 54.15052088752145 0.0
    vertex 278.99873552454414 57.011056094283546 0.0
  endloop
endfacet
facet normal 4.996003610813204e-16 0.0 -1.0
  outer loop
    vertex 276.5672001945894 48.02259882616369 0.0
    vertex 278.99873552454414 57.011056094283546 0.0
    vertex 278.6649260128815 50.75640833782609 0.0
  endloop
endfacet
facet normal 4.996003610813204e-16 0.0 -1.0
  outer loop
    vertex 278.6649260128815 50.75640833782609 0.0
    vertex 278.99873552454414 57.011056094283546 0.0
    vertex 281.39873552454395 52.85413415611825 0.0
  endloop
endfacet
facet normal 4.996003610813204e-16 0.0 -1.0
  outer loop
    vertex 281.39873552454395 52.85413415611825 0.0
    vertex 278.99873552454414 57.011056094283546 0.0
    vertex 283.33999271269874 58.809263699366795 0.0
  endloop
endfacet
facet normal 4.996003610813204e-16 0.0 -1.0
  outer loop
    vertex 281.39873552454395 52.85413415611825 0.0
    vertex 283.33999271269874 58.809263699366795 0.0
    vertex 284.5823241291909 54.17281973317935 0.0
  endloop
endfacet
facet normal 4.996003610813204e-16 0.0 -1.0
  outer loop
    vertex 284.5823241291909 54.17281973317935 0.0
    vertex 283.33999271269874 58.809263699366795 0.0
    vertex 287.998735524544 59.422598826163714 0.0
  endloop
endfacet
facet normal 4.996003610813204e-16 0.0 -1.0
  outer loop
    vertex 284.5823241291909 54.17281973317935 0.0
    vertex 287.998735524544 59.422598826163714 0.0
    vertex 287.99873552454386 54.62259882616354 0.0
  endloop
endfacet
facet normal 4.996003610813204e-16 0.0 -1.0
  outer loop
    vertex 287.99873552454386 54.62259882616354 0.0
    vertex 287.998735524544 59.422598826163714 0.0
    vertex 291.4151469198973 54.17281973317935 2.255973186038318e-14
  endloop
endfacet
facet normal 4.996003610813204e-16 0.0 -1.0
  outer loop
    vertex 291.4151469198973 54.17281973317935 2.255973186038318e-14
    vertex 287.998735524544 59.422598826163714 0.0
    vertex 292.6574783363895 58.809263699366795 2.255973186038318e-14
  endloop
endfacet
facet normal 4.996003610813204e-16 0.0 -1.0
  outer loop
    vertex 291.4151469198973 54.17281973317935 2.255973186038318e-14
    vertex 292.6574783363895 58.809263699366795 2.255973186038318e-14
    vertex 294.59873552454417 52.85413415611816 2.255973186038318e-14
  endloop
endfacet
facet normal 4.996003610813204e-16 0.0 -1.0
  outer loop
    vertex 294.59873552454417 52.85413415611816 2.255973186038318e-14
    vertex 292.6574783363895 58.809263699366795 2.255973186038318e-14
    vertex 296.998735524544 57.011056094283546 2.255973186038318e-14
  endloop
endfacet
facet normal 4.996003610813204e-16 0.0 -1.0
  outer loop
    vertex 294.59873552454417 52.85413415611816 2.255973186038318e-14
    vertex 296.998735524544 57.011056094283546 2.255973186038318e-14
    vertex 297.3325450362063 50.756408337825995 2.255973186038318e-14
  endloop
endfacet
facet normal 4.996003610813204e-16 0.0 -1.0
  outer loop
    vertex 297.3325450362063 50.756408337825995 2.255973186038318e-14
    vertex 296.998735524544 57.011056094283546 2.255973186038318e-14
    vertex 300.7266575859019 54.15052088752163 2.255973186038318e-14
  endloop
endfacet
facet normal 4.996003610813204e-16 0.0 -1.0
  outer loop
    vertex 297.3325450362063 50.756408337825995 2.255973186038318e-14
    vertex 300.7266575859019 54.15052088752163 2.255973186038318e-14
    vertex 299.43027085449864 48.022598826163595 2.255973186038318e-14
  endloop
endfacet
facet normal 4.996003610813204e-16 0.0 -1.0
  outer loop
    vertex 299.43027085449864 48.022598826163595 2.255973186038318e-14
    vertex 300.7266575859019 54.15052088752163 2.255973186038318e-14
    vertex 300.74895643155986 44.839010221516745 2.255973186038318e-14
  endloop
endfacet
facet normal 4.996003610813204e-16 0.0 -1.0
  outer loop
    vertex 300.74895643155986 44.839010221516745 2.255973186038318e-14
    vertex 300.7266575859019 54.15052088752163 2.255973186038318e-14
    vertex 303.5871927926638 50.42259882616359 2.255973186038318e-14
  endloop
endfacet
facet normal 4.996003610813204e-16 0.0 -1.0
  outer loop
    vertex 300.74895643155986 44.839010221516745 2.255973186038318e-14
    vertex 303.5871927926638 50.42259882616359 2.255973186038318e-14
    vertex 301.19873552454413 41.422598826163565 2.255973186038318e-14
  endloop
endfacet
facet normal 4.996003610813204e-16 0.0 -1.0
  outer loop
    vertex 301.19873552454413 41.422598826163565 2.255973186038318e-14
    vertex 303.5871927926638 50.42259882616359 2.255973186038318e-14
    vertex 302.3626240156157 30.82670972512549 2.255973186038318e-14
  endloop
endfacet
facet normal 4.996003610813204e-16 0.0 -1.0
  outer loop
    vertex 302.3626240156157 30.82670972512549 2.255973186038318e-14
    vertex 303.5871927926638 50.42259882616359 2.255973186038318e-14
    vertex 303.58719279266376 32.42259882616362 2.255973186038318e-14
  endloop
endfacet
facet normal 4.996003610813204e-16 0.0 -1.0
  outer loop
    vertex 303.58719279266376 32.42259882616362 2.255973186038318e-14
    vertex 303.5871927926638 50.42259882616359 2.255973186038318e-14
    vertex 305.385400397747 36.76385601431822 2.255973186038318e-14
  endloop
endfacet
facet normal 4.996003610813204e-16 0.0 -1.0
  outer loop
    vertex 305.385400397747 36.76385601431822 2.255973186038318e-14
    vertex 303.5871927926638 50.42259882616359 2.255973186038318e-14
    vertex 305.38540039774716 46.08134163800891 2.255973186038318e-14
  endloop
endfacet
facet normal 4.996003610813204e-16 0.0 -1.0
  outer loop
    vertex 305.385400397747 36.76385601431822 2.255973186038318e-14
    vertex 305.38540039774716 46.08134163800891 2.255973186038318e-14
    vertex 305.9987355245441 41.422598826163565 2.255973186038318e-14
  endloop
endfacet
facet normal 4.996003610813204e-16 0.0 -1.0
  outer loop
    vertex 291.4151469198973 28.672377919147905 2.255973186038318e-14
    vertex 290.3987355245439 23.738564820373362 2.255973186038318e-14
    vertex 287.9987355245438 28.22259882616354 0.0
  endloop
endfacet
facet normal 4.996003610813204e-16 0.0 -1.0
  outer loop
    vertex 290.3987355245439 23.738564820373362 2.255973186038318e-14
    vertex 291.4151469198973 28.672377919147905 2.255973186038318e-14
    vertex 292.6574783363894 24.035933952960335 2.255973186038318e-14
  endloop
endfacet
facet normal 4.996003610813204e-16 0.0 -1.0
  outer loop
    vertex 292.6574783363894 24.035933952960335 2.255973186038318e-14
    vertex 291.4151469198973 28.672377919147905 2.255973186038318e-14
    vertex 294.59873552454417 29.99106349620906 2.255973186038318e-14
  endloop
endfacet
facet normal 4.996003610813204e-16 0.0 -1.0
  outer loop
    vertex 292.6574783363894 24.035933952960335 2.255973186038318e-14
    vertex 294.59873552454417 29.99106349620906 2.255973186038318e-14
    vertex 296.9987355245441 25.83414155804376 2.255973186038318e-14
  endloop
endfacet
facet normal 4.996003610813204e-16 0.0 -1.0
  outer loop
    vertex 296.9987355245441 25.83414155804376 2.255973186038318e-14
    vertex 294.59873552454417 29.99106349620906 2.255973186038318e-14
    vertex 295.687770892787 30.82670972512549 2.255973186038318e-14
  endloop
endfacet
facet normal 4.996003610813204e-16 0.0 -1.0
  outer loop
    vertex 296.9987355245441 25.83414155804376 2.255973186038318e-14
    vertex 295.687770892787 30.82670972512549 2.255973186038318e-14
    vertex 297.3325450362063 32.08878931450122 2.255973186038318e-14
  endloop
endfacet
facet normal 4.996003610813204e-16 0.0 -1.0
  outer loop
    vertex 296.9987355245441 25.83414155804376 2.255973186038318e-14
    vertex 297.3325450362063 32.08878931450122 2.255973186038318e-14
    vertex 300.7266575859016 28.694676764805767 2.255973186038318e-14
  endloop
endfacet
facet normal 4.996003610813204e-16 0.0 -1.0
  outer loop
    vertex 300.7266575859016 28.694676764805767 2.255973186038318e-14
    vertex 297.3325450362063 32.08878931450122 2.255973186038318e-14
    vertex 299.4302708544986 34.82259882616353 2.255973186038318e-14
  endloop
endfacet
facet normal 4.996003610813204e-16 0.0 -1.0
  outer loop
    vertex 300.7266575859016 28.694676764805767 2.255973186038318e-14
    vertex 299.4302708544986 34.82259882616353 2.255973186038318e-14
    vertex 300.7489564315599 38.006187430810385 2.255973186038318e-14
  endloop
endfacet
facet normal 4.996003610813204e-16 0.0 -1.0
  outer loop
    vertex 300.7266575859016 28.694676764805767 2.255973186038318e-14
    vertex 300.7489564315599 38.006187430810385 2.255973186038318e-14
    vertex 302.3626240156157 30.82670972512549 2.255973186038318e-14
  endloop
endfacet
facet normal 4.996003610813204e-16 0.0 -1.0
  outer loop
    vertex 302.3626240156157 30.82670972512549 2.255973186038318e-14
    vertex 300.7489564315599 38.006187430810385 2.255973186038318e-14
    vertex 301.19873552454413 41.422598826163565 2.255973186038318e-14
  endloop
endfacet
facet normal 4.996003610813204e-16 0.0 -1.0
  outer loop
    vertex 285.5987355245439 12.338564820373337 0.0
    vertex 290.3987355245439 5.73856482037335 2.255973186038318e-14
    vertex 285.59873552454377 5.73856482037344 0.0
  endloop
endfacet
facet normal 4.996003610813204e-16 0.0 -1.0
  outer loop
    vertex 290.3987355245439 5.73856482037335 2.255973186038318e-14
    vertex 285.5987355245439 12.338564820373337 0.0
    vertex 287.9987355245438 28.22259882616354 0.0
  endloop
endfacet
facet normal 4.996003610813204e-16 0.0 -1.0
  outer loop
    vertex 290.3987355245439 5.73856482037335 2.255973186038318e-14
    vertex 287.9987355245438 28.22259882616354 0.0
    vertex 290.3987355245439 23.738564820373362 2.255973186038318e-14
  endloop
endfacet
facet normal 4.996003610813204e-16 0.0 -1.0
  outer loop
    vertex 290.3987355245439 5.73856482037335 2.255973186038318e-14
    vertex 290.3987355245439 23.738564820373362 2.255973186038318e-14
    vertex 290.3987355245439 17.138564820373418 2.255973186038318e-14
  endloop
endfacet
facet normal 4.996003610813204e-16 0.0 -1.0
  outer loop
    vertex 290.3987355245439 5.73856482037335 2.255973186038318e-14
    vertex 290.3987355245439 17.138564820373418 2.255973186038318e-14
    vertex 290.39873552454395 12.338564820373337 2.255973186038318e-14
  endloop
endfacet
facet normal 4.996003610813204e-16 0.0 -1.0
  outer loop
    vertex 290.39873552454395 12.338564820373337 2.255973186038318e-14
    vertex 290.3987355245439 17.138564820373418 2.255973186038318e-14
    vertex 296.998735524544 17.138564820373375 2.255973186038318e-14
  endloop
endfacet
facet normal 4.996003610813204e-16 0.0 -1.0
  outer loop
    vertex 290.39873552454395 12.338564820373337 2.255973186038318e-14
    vertex 296.998735524544 17.138564820373375 2.255973186038318e-14
    vertex 296.998735524544 12.338564820373337 2.255973186038318e-14
  endloop
endfacet
facet normal 4.996003610813204e-16 0.0 -1.0
  outer loop
    vertex 285.5987355245439 17.138564820373418 0.0
    vertex 278.99873552454414 12.338564820373337 0.0
    vertex 278.9987355245441 17.138564820373418 0.0
  endloop
endfacet
facet normal 4.996003610813204e-16 0.0 -1.0
  outer loop
    vertex 278.99873552454414 12.338564820373337 0.0
    vertex 285.5987355245439 17.138564820373418 0.0
    vertex 285.5987355245439 12.338564820373337 0.0
  endloop
endfacet
facet normal -1.0 -6.836282381934263e-15 -4.996003610813204e-16
  outer loop
    vertex 285.59873552454377 23.73856482037345 0.39999999999999997
    vertex 285.5987355245439 17.138564820373418 0.0
    vertex 285.5987355245439 17.138564820373418 0.39999999999999997
  endloop
endfacet
facet normal -1.0 -6.836282381934263e-15 -4.996003610813204e-16
  outer loop
    vertex 285.5987355245439 17.138564820373418 0.0
    vertex 285.59873552454377 23.73856482037345 0.39999999999999997
    vertex 285.59873552454377 23.73856482037345 0.0
  endloop
endfacet
facet normal -1.0 6.836282381934403e-15 -4.996003610813204e-16
  outer loop
    vertex 285.5987355245439 12.338564820373337 0.39999999999999997
    vertex 285.59873552454377 5.73856482037344 0.0
    vertex 285.59873552454377 5.73856482037344 0.39999999999999997
  endloop
endfacet
facet normal -1.0 6.836282381934403e-15 -4.996003610813204e-16
  outer loop
    vertex 285.59873552454377 5.73856482037344 0.0
    vertex 285.5987355245439 12.338564820373337 0.39999999999999997
    vertex 285.5987355245439 12.338564820373337 0.0
  endloop
endfacet
facet normal -0.3826834323650941 -0.9238795325112851 -1.9118878098944009e-16
  outer loop
    vertex 283.33999271269874 24.035933952960423 0.39999999999999997
    vertex 278.99873552454414 25.83414155804376 0.0
    vertex 283.33999271269874 24.035933952960423 0.0
  endloop
endfacet
facet normal -0.3826834323650941 -0.9238795325112851 -1.9118878098944009e-16
  outer loop
    vertex 278.99873552454414 25.83414155804376 0.0
    vertex 283.33999271269874 24.035933952960423 0.39999999999999997
    vertex 278.99873552454414 25.83414155804376 0.39999999999999997
  endloop
endfacet
facet normal 0.13052619222003098 -0.9914448613738132 6.521093276369731e-17
  outer loop
    vertex 287.99873552454386 54.62259882616354 0.39999999999999997
    vertex 284.5823241291909 54.17281973317935 0.0
    vertex 287.99873552454386 54.62259882616354 0.0
  endloop
endfacet
facet normal 0.13052619222003098 -0.9914448613738132 6.521093276369731e-17
  outer loop
    vertex 284.5823241291909 54.17281973317935 0.0
    vertex 287.99873552454386 54.62259882616354 0.39999999999999997
    vertex 284.5823241291909 54.17281973317935 0.39999999999999997
  endloop
endfacet
facet normal 0.7933533402912163 -0.6087614290087454 3.9635961527456335e-16
  outer loop
    vertex 302.3626240156157 30.82670972512549 2.255973186038318e-14
    vertex 300.7266575859016 28.694676764805767 0.4000000000000225
    vertex 300.7266575859016 28.694676764805767 2.255973186038318e-14
  endloop
endfacet
facet normal 0.7933533402912163 -0.6087614290087454 3.9635961527456335e-16
  outer loop
    vertex 300.7266575859016 28.694676764805767 0.4000000000000225
    vertex 302.3626240156157 30.82670972512549 2.255973186038318e-14
    vertex 302.3626240156157 30.82670972512549 0.4000000000000225
  endloop
endfacet
facet normal 0.9914448613738014 -0.13052619222012105 4.953262107345708e-16
  outer loop
    vertex 305.9987355245441 41.422598826163565 2.255973186038318e-14
    vertex 305.385400397747 36.76385601431822 0.4000000000000225
    vertex 305.385400397747 36.76385601431822 2.255973186038318e-14
  endloop
endfacet
facet normal 0.9914448613738014 -0.13052619222012105 4.953262107345708e-16
  outer loop
    vertex 305.385400397747 36.76385601431822 0.4000000000000225
    vertex 305.9987355245441 41.422598826163565 2.255973186038318e-14
    vertex 305.9987355245441 41.422598826163565 0.4000000000000225
  endloop
endfacet
facet normal 1.0 -6.836282381934309e-15 4.996003610813204e-16
  outer loop
    vertex 290.39873552454395 12.338564820373337 2.255973186038318e-14
    vertex 290.3987355245439 5.73856482037335 0.4000000000000225
    vertex 290.3987355245439 5.73856482037335 2.255973186038318e-14
  endloop
endfacet
facet normal 1.0 -6.836282381934309e-15 4.996003610813204e-16
  outer loop
    vertex 290.3987355245439 5.73856482037335 0.4000000000000225
    vertex 290.39873552454395 12.338564820373337 2.255973186038318e-14
    vertex 290.39873552454395 12.338564820373337 0.4000000000000225
  endloop
endfacet
facet normal 0.7933533402912589 0.6087614290086897 3.9635961527458465e-16
  outer loop
    vertex 300.7266575859019 54.15052088752163 2.255973186038318e-14
    vertex 303.5871927926638 50.42259882616359 0.4000000000000225
    vertex 303.5871927926638 50.42259882616359 2.255973186038318e-14
  endloop
endfacet
facet normal 0.7933533402912589 0.6087614290086897 3.9635961527458465e-16
  outer loop
    vertex 303.5871927926638 50.42259882616359 0.4000000000000225
    vertex 300.7266575859019 54.15052088752163 2.255973186038318e-14
    vertex 300.7266575859019 54.15052088752163 0.4000000000000225
  endloop
endfacet
facet normal 0.3826834323650795 0.9238795325112912 1.911887809894328e-16
  outer loop
    vertex 292.6574783363895 58.809263699366795 0.4000000000000225
    vertex 296.998735524544 57.011056094283546 2.255973186038318e-14
    vertex 292.6574783363895 58.809263699366795 2.255973186038318e-14
  endloop
endfacet
facet normal 0.3826834323650795 0.9238795325112912 1.911887809894328e-16
  outer loop
    vertex 296.998735524544 57.011056094283546 2.255973186038318e-14
    vertex 292.6574783363895 58.809263699366795 0.4000000000000225
    vertex 296.998735524544 57.011056094283546 0.4000000000000225
  endloop
endfacet
facet normal -0.9914448613738014 0.13052619222012105 -4.953262107345708e-16
  outer loop
    vertex 270.61207065134096 46.08134163800891 0.39999999999999997
    vertex 269.99873552454386 41.422598826163565 0.0
    vertex 269.99873552454386 41.422598826163565 0.39999999999999997
  endloop
endfacet
facet normal -0.9914448613738014 0.13052619222012105 -4.953262107345708e-16
  outer loop
    vertex 269.99873552454386 41.422598826163565 0.0
    vertex 270.61207065134096 46.08134163800891 0.39999999999999997
    vertex 270.61207065134096 46.08134163800891 0.0
  endloop
endfacet
facet normal -0.793353340291239 0.6087614290087159 -3.9635961527457474e-16
  outer loop
    vertex 275.27081346318613 54.15052088752145 0.39999999999999997
    vertex 272.41027825642414 50.42259882616359 0.0
    vertex 272.41027825642414 50.42259882616359 0.39999999999999997
  endloop
endfacet
facet normal -0.793353340291239 0.6087614290087159 -3.9635961527457474e-16
  outer loop
    vertex 272.41027825642414 50.42259882616359 0.0
    vertex 275.27081346318613 54.15052088752145 0.39999999999999997
    vertex 275.27081346318613 54.15052088752145 0.0
  endloop
endfacet
facet normal -0.7933533402912829 -0.6087614290086587 -3.9635961527459663e-16
  outer loop
    vertex 272.4102782564244 32.42259882616362 0.39999999999999997
    vertex 273.6348470334722 30.82670972512549 0.0
    vertex 273.6348470334722 30.82670972512549 0.39999999999999997
  endloop
endfacet
facet normal -0.7933533402912829 -0.6087614290086587 -3.9635961527459663e-16
  outer loop
    vertex 273.6348470334722 30.82670972512549 0.0
    vertex 272.4102782564244 32.42259882616362 0.39999999999999997
    vertex 272.4102782564244 32.42259882616362 0.0
  endloop
endfacet
facet normal -4.996003610813204e-16 0.0 1.0
  outer loop
    vertex 290.39873552454395 12.338564820373337 0.4000000000000225
    vertex 290.3987355245439 17.138564820373418 0.4000000000000225
    vertex 290.3987355245439 5.73856482037335 0.4000000000000225
  endloop
endfacet
facet normal -4.996003610813204e-16 0.0 1.0
  outer loop
    vertex 290.3987355245439 17.138564820373418 0.4000000000000225
    vertex 290.39873552454395 12.338564820373337 0.4000000000000225
    vertex 296.998735524544 17.138564820373375 0.4000000000000225
  endloop
endfacet
facet normal -4.996003610813204e-16 0.0 1.0
  outer loop
    vertex 296.998735524544 17.138564820373375 0.4000000000000225
    vertex 290.39873552454395 12.338564820373337 0.4000000000000225
    vertex 296.998735524544 12.338564820373337 0.4000000000000225
  endloop
endfacet
facet normal -4.996003610813204e-16 0.0 1.0
  outer loop
    vertex 290.3987355245439 5.73856482037335 0.4000000000000225
    vertex 285.5987355245439 12.338564820373337 0.39999999999999997
    vertex 285.59873552454377 5.73856482037344 0.39999999999999997
  endloop
endfacet
facet normal -4.996003610813204e-16 0.0 1.0
  outer loop
    vertex 285.5987355245439 12.338564820373337 0.39999999999999997
    vertex 290.3987355245439 5.73856482037335 0.4000000000000225
    vertex 285.5987355245439 17.138564820373418 0.39999999999999997
  endloop
endfacet
facet normal -4.996003610813204e-16 0.0 1.0
  outer loop
    vertex 285.5987355245439 17.138564820373418 0.39999999999999997
    vertex 290.3987355245439 5.73856482037335 0.4000000000000225
    vertex 287.9987355245438 28.22259882616354 0.39999999999999997
  endloop
endfacet
facet normal -4.996003610813204e-16 0.0 1.0
  outer loop
    vertex 287.9987355245438 28.22259882616354 0.39999999999999997
    vertex 290.3987355245439 5.73856482037335 0.4000000000000225
    vertex 290.3987355245439 23.738564820373362 0.4000000000000225
  endloop
endfacet
facet normal -4.996003610813204e-16 0.0 1.0
  outer loop
    vertex 287.9987355245438 28.22259882616354 0.39999999999999997
    vertex 290.3987355245439 23.738564820373362 0.4000000000000225
    vertex 291.4151469198973 28.672377919147905 0.4000000000000225
  endloop
endfacet
facet normal -4.996003610813204e-16 0.0 1.0
  outer loop
    vertex 290.3987355245439 23.738564820373362 0.4000000000000225
    vertex 290.3987355245439 5.73856482037335 0.4000000000000225
    vertex 290.3987355245439 17.138564820373418 0.4000000000000225
  endloop
endfacet
facet normal -4.996003610813204e-16 0.0 1.0
  outer loop
    vertex 291.4151469198973 28.672377919147905 0.4000000000000225
    vertex 290.3987355245439 23.738564820373362 0.4000000000000225
    vertex 292.6574783363894 24.035933952960335 0.4000000000000225
  endloop
endfacet
facet normal -4.996003610813204e-16 0.0 1.0
  outer loop
    vertex 291.4151469198973 28.672377919147905 0.4000000000000225
    vertex 292.6574783363894 24.035933952960335 0.4000000000000225
    vertex 294.59873552454417 29.99106349620906 0.4000000000000225
  endloop
endfacet
facet normal -4.996003610813204e-16 0.0 1.0
  outer loop
    vertex 294.59873552454417 29.99106349620906 0.4000000000000225
    vertex 292.6574783363894 24.035933952960335 0.4000000000000225
    vertex 296.9987355245441 25.83414155804376 0.4000000000000225
  endloop
endfacet
facet normal -4.996003610813204e-16 0.0 1.0
  outer loop
    vertex 294.59873552454417 29.99106349620906 0.4000000000000225
    vertex 296.9987355245441 25.83414155804376 0.4000000000000225
    vertex 295.687770892787 30.82670972512549 0.4000000000000225
  endloop
endfacet
facet normal -4.996003610813204e-16 0.0 1.0
  outer loop
    vertex 295.687770892787 30.82670972512549 0.4000000000000225
    vertex 296.9987355245441 25.83414155804376 0.4000000000000225
    vertex 297.3325450362063 32.08878931450122 0.4000000000000225
  endloop
endfacet
facet normal -4.996003610813204e-16 0.0 1.0
  outer loop
    vertex 297.3325450362063 32.08878931450122 0.4000000000000225
    vertex 296.9987355245441 25.83414155804376 0.4000000000000225
    vertex 300.7266575859016 28.694676764805767 0.4000000000000225
  endloop
endfacet
facet normal -4.996003610813204e-16 0.0 1.0
  outer loop
    vertex 297.3325450362063 32.08878931450122 0.4000000000000225
    vertex 300.7266575859016 28.694676764805767 0.4000000000000225
    vertex 299.4302708544986 34.82259882616353 0.4000000000000225
  endloop
endfacet
facet normal -4.996003610813204e-16 0.0 1.0
  outer loop
    vertex 299.4302708544986 34.82259882616353 0.4000000000000225
    vertex 300.7266575859016 28.694676764805767 0.4000000000000225
    vertex 300.7489564315599 38.006187430810385 0.4000000000000225
  endloop
endfacet
facet normal -4.996003610813204e-16 0.0 1.0
  outer loop
    vertex 300.7489564315599 38.006187430810385 0.4000000000000225
    vertex 300.7266575859016 28.694676764805767 0.4000000000000225
    vertex 302.3626240156157 30.82670972512549 0.4000000000000225
  endloop
endfacet
facet normal -4.996003610813204e-16 0.0 1.0
  outer loop
    vertex 300.7489564315599 38.006187430810385 0.4000000000000225
    vertex 302.3626240156157 30.82670972512549 0.4000000000000225
    vertex 301.19873552454413 41.422598826163565 0.4000000000000225
  endloop
endfacet
facet normal -4.996003610813204e-16 0.0 1.0
  outer loop
    vertex 270.6120706513408 36.763856014318044 0.39999999999999997
    vertex 270.61207065134096 46.08134163800891 0.39999999999999997
    vertex 269.99873552454386 41.422598826163565 0.39999999999999997
  endloop
endfacet
facet normal -4.996003610813204e-16 0.0 1.0
  outer loop
    vertex 270.61207065134096 46.08134163800891 0.39999999999999997
    vertex 270.6120706513408 36.763856014318044 0.39999999999999997
    vertex 272.4102782564244 32.42259882616362 0.39999999999999997
  endloop
endfacet
facet normal -4.996003610813204e-16 0.0 1.0
  outer loop
    vertex 270.61207065134096 46.08134163800891 0.39999999999999997
    vertex 272.4102782564244 32.42259882616362 0.39999999999999997
    vertex 272.41027825642414 50.42259882616359 0.39999999999999997
  endloop
endfacet
facet normal -4.996003610813204e-16 0.0 1.0
  outer loop
    vertex 272.41027825642414 50.42259882616359 0.39999999999999997
    vertex 272.4102782564244 32.42259882616362 0.39999999999999997
    vertex 275.27081346318613 54.15052088752145 0.39999999999999997
  endloop
endfacet
facet normal -4.996003610813204e-16 0.0 1.0
  outer loop
    vertex 275.27081346318613 54.15052088752145 0.39999999999999997
    vertex 272.4102782564244 32.42259882616362 0.39999999999999997
    vertex 273.6348470334722 30.82670972512549 0.39999999999999997
  endloop
endfacet
facet normal -4.996003610813204e-16 0.0 1.0
  outer loop
    vertex 275.27081346318613 54.15052088752145 0.39999999999999997
    vertex 273.6348470334722 30.82670972512549 0.39999999999999997
    vertex 274.7987355245438 41.422598826163565 0.39999999999999997
  endloop
endfacet
facet normal -4.996003610813204e-16 0.0 1.0
  outer loop
    vertex 275.27081346318613 54.15052088752145 0.39999999999999997
    vertex 274.7987355245438 41.422598826163565 0.39999999999999997
    vertex 275.24851461752843 44.83901022151692 0.39999999999999997
  endloop
endfacet
facet normal -4.996003610813204e-16 0.0 1.0
  outer loop
    vertex 275.27081346318613 54.15052088752145 0.39999999999999997
    vertex 275.24851461752843 44.83901022151692 0.39999999999999997
    vertex 276.5672001945894 48.02259882616369 0.39999999999999997
  endloop
endfacet
facet normal -4.996003610813204e-16 0.0 1.0
  outer loop
    vertex 275.27081346318613 54.15052088752145 0.39999999999999997
    vertex 276.5672001945894 48.02259882616369 0.39999999999999997
    vertex 278.99873552454414 57.011056094283546 0.39999999999999997
  endloop
endfacet
facet normal -4.996003610813204e-16 0.0 1.0
  outer loop
    vertex 278.99873552454414 57.011056094283546 0.39999999999999997
    vertex 276.5672001945894 48.02259882616369 0.39999999999999997
    vertex 278.6649260128815 50.75640833782609 0.39999999999999997
  endloop
endfacet
facet normal -4.996003610813204e-16 0.0 1.0
  outer loop
    vertex 278.99873552454414 57.011056094283546 0.39999999999999997
    vertex 278.6649260128815 50.75640833782609 0.39999999999999997
    vertex 281.39873552454395 52.85413415611825 0.39999999999999997
  endloop
endfacet
facet normal -4.996003610813204e-16 0.0 1.0
  outer loop
    vertex 278.99873552454414 57.011056094283546 0.39999999999999997
    vertex 281.39873552454395 52.85413415611825 0.39999999999999997
    vertex 283.33999271269874 58.809263699366795 0.39999999999999997
  endloop
endfacet
facet normal -4.996003610813204e-16 0.0 1.0
  outer loop
    vertex 283.33999271269874 58.809263699366795 0.39999999999999997
    vertex 281.39873552454395 52.85413415611825 0.39999999999999997
    vertex 284.5823241291909 54.17281973317935 0.39999999999999997
  endloop
endfacet
facet normal -4.996003610813204e-16 0.0 1.0
  outer loop
    vertex 283.33999271269874 58.809263699366795 0.39999999999999997
    vertex 284.5823241291909 54.17281973317935 0.39999999999999997
    vertex 287.998735524544 59.422598826163714 0.39999999999999997
  endloop
endfacet
facet normal -4.996003610813204e-16 0.0 1.0
  outer loop
    vertex 287.998735524544 59.422598826163714 0.39999999999999997
    vertex 284.5823241291909 54.17281973317935 0.39999999999999997
    vertex 287.99873552454386 54.62259882616354 0.39999999999999997
  endloop
endfacet
facet normal -4.996003610813204e-16 0.0 1.0
  outer loop
    vertex 287.998735524544 59.422598826163714 0.39999999999999997
    vertex 287.99873552454386 54.62259882616354 0.39999999999999997
    vertex 291.4151469198973 54.17281973317935 0.4000000000000225
  endloop
endfacet
facet normal -4.996003610813204e-16 0.0 1.0
  outer loop
    vertex 287.998735524544 59.422598826163714 0.39999999999999997
    vertex 291.4151469198973 54.17281973317935 0.4000000000000225
    vertex 292.6574783363895 58.809263699366795 0.4000000000000225
  endloop
endfacet
facet normal -4.996003610813204e-16 0.0 1.0
  outer loop
    vertex 292.6574783363895 58.809263699366795 0.4000000000000225
    vertex 291.4151469198973 54.17281973317935 0.4000000000000225
    vertex 294.59873552454417 52.85413415611816 0.4000000000000225
  endloop
endfacet
facet normal -4.996003610813204e-16 0.0 1.0
  outer loop
    vertex 292.6574783363895 58.809263699366795 0.4000000000000225
    vertex 294.59873552454417 52.85413415611816 0.4000000000000225
    vertex 296.998735524544 57.011056094283546 0.4000000000000225
  endloop
endfacet
facet normal -4.996003610813204e-16 0.0 1.0
  outer loop
    vertex 296.998735524544 57.011056094283546 0.4000000000000225
    vertex 294.59873552454417 52.85413415611816 0.4000000000000225
    vertex 297.3325450362063 50.756408337825995 0.4000000000000225
  endloop
endfacet
facet normal -4.996003610813204e-16 0.0 1.0
  outer loop
    vertex 296.998735524544 57.011056094283546 0.4000000000000225
    vertex 297.3325450362063 50.756408337825995 0.4000000000000225
    vertex 300.7266575859019 54.15052088752163 0.4000000000000225
  endloop
endfacet
facet normal -4.996003610813204e-16 0.0 1.0
  outer loop
    vertex 300.7266575859019 54.15052088752163 0.4000000000000225
    vertex 297.3325450362063 50.756408337825995 0.4000000000000225
    vertex 299.43027085449864 48.022598826163595 0.4000000000000225
  endloop
endfacet
facet normal -4.996003610813204e-16 0.0 1.0
  outer loop
    vertex 300.7266575859019 54.15052088752163 0.4000000000000225
    vertex 299.43027085449864 48.022598826163595 0.4000000000000225
    vertex 300.74895643155986 44.839010221516745 0.4000000000000225
  endloop
endfacet
facet normal -4.996003610813204e-16 0.0 1.0
  outer loop
    vertex 300.7266575859019 54.15052088752163 0.4000000000000225
    vertex 300.74895643155986 44.839010221516745 0.4000000000000225
    vertex 303.5871927926638 50.42259882616359 0.4000000000000225
  endloop
endfacet
facet normal -4.996003610813204e-16 0.0 1.0
  outer loop
    vertex 303.5871927926638 50.42259882616359 0.4000000000000225
    vertex 300.74895643155986 44.839010221516745 0.4000000000000225
    vertex 301.19873552454413 41.422598826163565 0.4000000000000225
  endloop
endfacet
facet normal -4.996003610813204e-16 0.0 1.0
  outer loop
    vertex 303.5871927926638 50.42259882616359 0.4000000000000225
    vertex 301.19873552454413 41.422598826163565 0.4000000000000225
    vertex 302.3626240156157 30.82670972512549 0.4000000000000225
  endloop
endfacet
facet normal -4.996003610813204e-16 0.0 1.0
  outer loop
    vertex 303.5871927926638 50.42259882616359 0.4000000000000225
    vertex 302.3626240156157 30.82670972512549 0.4000000000000225
    vertex 303.58719279266376 32.42259882616362 0.4000000000000225
  endloop
endfacet
facet normal -4.996003610813204e-16 0.0 1.0
  outer loop
    vertex 303.5871927926638 50.42259882616359 0.4000000000000225
    vertex 303.58719279266376 32.42259882616362 0.4000000000000225
    vertex 305.385400397747 36.76385601431822 0.4000000000000225
  endloop
endfacet
facet normal -4.996003610813204e-16 0.0 1.0
  outer loop
    vertex 303.5871927926638 50.42259882616359 0.4000000000000225
    vertex 305.385400397747 36.76385601431822 0.4000000000000225
    vertex 305.38540039774716 46.08134163800891 0.4000000000000225
  endloop
endfacet
facet normal -4.996003610813204e-16 0.0 1.0
  outer loop
    vertex 305.38540039774716 46.08134163800891 0.4000000000000225
    vertex 305.385400397747 36.76385601431822 0.4000000000000225
    vertex 305.9987355245441 41.422598826163565 0.4000000000000225
  endloop
endfacet
facet normal -4.996003610813204e-16 0.0 1.0
  outer loop
    vertex 275.27081346318613 28.69467676480563 0.39999999999999997
    vertex 274.7987355245438 41.422598826163565 0.39999999999999997
    vertex 273.6348470334722 30.82670972512549 0.39999999999999997
  endloop
endfacet
facet normal -4.996003610813204e-16 0.0 1.0
  outer loop
    vertex 274.7987355245438 41.422598826163565 0.39999999999999997
    vertex 275.27081346318613 28.69467676480563 0.39999999999999997
    vertex 275.24851461752843 38.006187430810385 0.39999999999999997
  endloop
endfacet
facet normal -4.996003610813204e-16 0.0 1.0
  outer loop
    vertex 275.24851461752843 38.006187430810385 0.39999999999999997
    vertex 275.27081346318613 28.69467676480563 0.39999999999999997
    vertex 276.5672001945893 34.82259882616362 0.39999999999999997
  endloop
endfacet
facet normal -4.996003610813204e-16 0.0 1.0
  outer loop
    vertex 276.5672001945893 34.82259882616362 0.39999999999999997
    vertex 275.27081346318613 28.69467676480563 0.39999999999999997
    vertex 278.99873552454414 25.83414155804376 0.39999999999999997
  endloop
endfacet
facet normal -4.996003610813204e-16 0.0 1.0
  outer loop
    vertex 276.5672001945893 34.82259882616362 0.39999999999999997
    vertex 278.99873552454414 25.83414155804376 0.39999999999999997
    vertex 278.66492601288144 32.08878931450122 0.39999999999999997
  endloop
endfacet
facet normal -4.996003610813204e-16 0.0 1.0
  outer loop
    vertex 278.66492601288144 32.08878931450122 0.39999999999999997
    vertex 278.99873552454414 25.83414155804376 0.39999999999999997
    vertex 280.30970015630106 30.82670972512549 0.39999999999999997
  endloop
endfacet
facet normal -4.996003610813204e-16 0.0 1.0
  outer loop
    vertex 280.30970015630106 30.82670972512549 0.39999999999999997
    vertex 278.99873552454414 25.83414155804376 0.39999999999999997
    vertex 283.33999271269874 24.035933952960423 0.39999999999999997
  endloop
endfacet
facet normal -4.996003610813204e-16 0.0 1.0
  outer loop
    vertex 280.30970015630106 30.82670972512549 0.39999999999999997
    vertex 283.33999271269874 24.035933952960423 0.39999999999999997
    vertex 281.3987355245442 29.99106349620897 0.39999999999999997
  endloop
endfacet
facet normal -4.996003610813204e-16 0.0 1.0
  outer loop
    vertex 281.3987355245442 29.99106349620897 0.39999999999999997
    vertex 283.33999271269874 24.035933952960423 0.39999999999999997
    vertex 284.5823241291909 28.672377919147905 0.39999999999999997
  endloop
endfacet
facet normal -4.996003610813204e-16 0.0 1.0
  outer loop
    vertex 284.5823241291909 28.672377919147905 0.39999999999999997
    vertex 283.33999271269874 24.035933952960423 0.39999999999999997
    vertex 285.59873552454377 23.73856482037345 0.39999999999999997
  endloop
endfacet
facet normal -4.996003610813204e-16 0.0 1.0
  outer loop
    vertex 284.5823241291909 28.672377919147905 0.39999999999999997
    vertex 285.59873552454377 23.73856482037345 0.39999999999999997
    vertex 287.9987355245438 28.22259882616354 0.39999999999999997
  endloop
endfacet
facet normal -4.996003610813204e-16 0.0 1.0
  outer loop
    vertex 287.9987355245438 28.22259882616354 0.39999999999999997
    vertex 285.59873552454377 23.73856482037345 0.39999999999999997
    vertex 285.5987355245439 17.138564820373418 0.39999999999999997
  endloop
endfacet
facet normal -4.996003610813204e-16 0.0 1.0
  outer loop
    vertex 278.99873552454414 12.338564820373337 0.39999999999999997
    vertex 285.5987355245439 17.138564820373418 0.39999999999999997
    vertex 278.9987355245441 17.138564820373418 0.39999999999999997
  endloop
endfacet
facet normal -4.996003610813204e-16 0.0 1.0
  outer loop
    vertex 285.5987355245439 17.138564820373418 0.39999999999999997
    vertex 278.99873552454414 12.338564820373337 0.39999999999999997
    vertex 285.5987355245439 12.338564820373337 0.39999999999999997
  endloop
endfacet
facet normal -0.9238795325112598 -0.3826834323651552 -4.615705480382669e-16
  outer loop
    vertex 270.6120706513408 36.763856014318044 0.39999999999999997
    vertex 272.4102782564244 32.42259882616362 0.0
    vertex 272.4102782564244 32.42259882616362 0.39999999999999997
  endloop
endfacet
facet normal -0.9238795325112598 -0.3826834323651552 -4.615705480382669e-16
  outer loop
    vertex 272.4102782564244 32.42259882616362 0.0
    vertex 270.6120706513408 36.763856014318044 0.39999999999999997
    vertex 270.6120706513408 36.763856014318044 0.0
  endloop
endfacet
facet normal 0.13052619222007958 0.9914448613738068 6.52109327637216e-17
  outer loop
    vertex 287.998735524544 59.422598826163714 0.39999999999999997
    vertex 292.6574783363895 58.809263699366795 2.255973186038318e-14
    vertex 287.998735524544 59.422598826163714 0.0
  endloop
endfacet
facet normal 0.13052619222007958 0.9914448613738068 6.52109327637216e-17
  outer loop
    vertex 292.6574783363895 58.809263699366795 2.255973186038318e-14
    vertex 287.998735524544 59.422598826163714 0.39999999999999997
    vertex 292.6574783363895 58.809263699366795 0.4000000000000225
  endloop
endfacet
facet normal -0.991444861373807 -0.13052619222007833 -4.953262107345737e-16
  outer loop
    vertex 269.99873552454386 41.422598826163565 0.39999999999999997
    vertex 270.6120706513408 36.763856014318044 0.0
    vertex 270.6120706513408 36.763856014318044 0.39999999999999997
  endloop
endfacet
facet normal -0.991444861373807 -0.13052619222007833 -4.953262107345737e-16
  outer loop
    vertex 270.6120706513408 36.763856014318044 0.0
    vertex 269.99873552454386 41.422598826163565 0.39999999999999997
    vertex 269.99873552454386 41.422598826163565 0.0
  endloop
endfacet
facet normal -0.38268343236507774 0.9238795325112918 -1.911887809894319e-16
  outer loop
    vertex 278.99873552454414 57.011056094283546 0.39999999999999997
    vertex 283.33999271269874 58.809263699366795 0.0
    vertex 278.99873552454414 57.011056094283546 0.0
  endloop
endfacet
facet normal -0.38268343236507774 0.9238795325112918 -1.911887809894319e-16
  outer loop
    vertex 283.33999271269874 58.809263699366795 0.0
    vertex 278.99873552454414 57.011056094283546 0.39999999999999997
    vertex 283.33999271269874 58.809263699366795 0.39999999999999997
  endloop
endfacet
facet normal -0.608761429008714 0.7933533402912403 -3.0413742974513415e-16
  outer loop
    vertex 275.27081346318613 54.15052088752145 0.39999999999999997
    vertex 278.99873552454414 57.011056094283546 0.0
    vertex 275.27081346318613 54.15052088752145 0.0
  endloop
endfacet
facet normal -0.608761429008714 0.7933533402912403 -3.0413742974513415e-16
  outer loop
    vertex 278.99873552454414 57.011056094283546 0.0
    vertex 275.27081346318613 54.15052088752145 0.39999999999999997
    vertex 278.99873552454414 57.011056094283546 0.39999999999999997
  endloop
endfacet
facet normal 0.9238795325112885 0.3826834323650856 4.615705480382813e-16
  outer loop
    vertex 303.5871927926638 50.42259882616359 2.255973186038318e-14
    vertex 305.38540039774716 46.08134163800891 0.4000000000000225
    vertex 305.38540039774716 46.08134163800891 2.255973186038318e-14
  endloop
endfacet
facet normal 0.9238795325112885 0.3826834323650856 4.615705480382813e-16
  outer loop
    vertex 305.38540039774716 46.08134163800891 0.4000000000000225
    vertex 303.5871927926638 50.42259882616359 2.255973186038318e-14
    vertex 303.5871927926638 50.42259882616359 0.4000000000000225
  endloop
endfacet
facet normal 0.923879532511296 -0.38268343236506785 4.61570548038285e-16
  outer loop
    vertex 305.385400397747 36.76385601431822 2.255973186038318e-14
    vertex 303.58719279266376 32.42259882616362 0.4000000000000225
    vertex 303.58719279266376 32.42259882616362 2.255973186038318e-14
  endloop
endfacet
facet normal 0.923879532511296 -0.38268343236506785 4.61570548038285e-16
  outer loop
    vertex 303.58719279266376 32.42259882616362 0.4000000000000225
    vertex 305.385400397747 36.76385601431822 2.255973186038318e-14
    vertex 305.385400397747 36.76385601431822 0.4000000000000225
  endloop
endfacet
facet normal 1.0 0.0 4.996003610813204e-16
  outer loop
    vertex 290.3987355245439 23.738564820373362 2.255973186038318e-14
    vertex 290.3987355245439 17.138564820373418 0.4000000000000225
    vertex 290.3987355245439 17.138564820373418 2.255973186038318e-14
  endloop
endfacet
facet normal 1.0 0.0 4.996003610813204e-16
  outer loop
    vertex 290.3987355245439 17.138564820373418 0.4000000000000225
    vertex 290.3987355245439 23.738564820373362 2.255973186038318e-14
    vertex 290.3987355245439 23.738564820373362 0.4000000000000225
  endloop
endfacet
facet normal 0.0 1.0 0.0
  outer loop
    vertex 278.9987355245441 17.138564820373418 0.39999999999999997
    vertex 285.5987355245439 17.138564820373418 0.0
    vertex 278.9987355245441 17.138564820373418 0.0
  endloop
endfacet
facet normal 0.0 1.0 0.0
  outer loop
    vertex 285.5987355245439 17.138564820373418 0.0
    vertex 278.9987355245441 17.138564820373418 0.39999999999999997
    vertex 285.5987355245439 17.138564820373418 0.39999999999999997
  endloop
endfacet
facet normal -0.13052619222008455 0.9914448613738062 -6.521093276372407e-17
  outer loop
    vertex 283.33999271269874 58.809263699366795 0.39999999999999997
    vertex 287.998735524544 59.422598826163714 0.0
    vertex 283.33999271269874 58.809263699366795 0.0
  endloop
endfacet
facet normal -0.13052619222008455 0.9914448613738062 -6.521093276372407e-17
  outer loop
    vertex 287.998735524544 59.422598826163714 0.0
    vertex 283.33999271269874 58.809263699366795 0.39999999999999997
    vertex 287.998735524544 59.422598826163714 0.39999999999999997
  endloop
endfacet
facet normal 0.9914448613738064 0.1305261922200833 4.953262107345734e-16
  outer loop
    vertex 305.38540039774716 46.08134163800891 2.255973186038318e-14
    vertex 305.9987355245441 41.422598826163565 0.4000000000000225
    vertex 305.9987355245441 41.422598826163565 2.255973186038318e-14
  endloop
endfacet
facet normal 0.9914448613738064 0.1305261922200833 4.953262107345734e-16
  outer loop
    vertex 305.9987355245441 41.422598826163565 0.4000000000000225
    vertex 305.38540039774716 46.08134163800891 2.255973186038318e-14
    vertex 305.38540039774716 46.08134163800891 0.4000000000000225
  endloop
endfacet
facet normal -0.9238795325113021 0.3826834323650528 -4.61570548038288e-16
  outer loop
    vertex 272.41027825642414 50.42259882616359 0.39999999999999997
    vertex 270.61207065134096 46.08134163800891 0.0
    vertex 270.61207065134096 46.08134163800891 0.39999999999999997
  endloop
endfacet
facet normal -0.9238795325113021 0.3826834323650528 -4.61570548038288e-16
  outer loop
    vertex 270.61207065134096 46.08134163800891 0.0
    vertex 272.41027825642414 50.42259882616359 0.39999999999999997
    vertex 272.41027825642414 50.42259882616359 0.0
  endloop
endfacet
endsolid health_device_V8
